<svg width="122.88" height="105.37" xmlns="http://www.w3.org/2000/svg" xml:space="preserve" version="1.1">

 <g>
  <title>Layer 1</title>
  <g id="svg_1">
   <path fill="#FABA6F" id="svg_2" d="m72.81,86.58c-3.83,4.63 -8.47,9.22 -13.89,13.77c1.17,-0.16 2.34,-0.35 3.48,-0.57c3.13,-0.63 6.13,-1.55 9.04,-2.81c1.48,-0.64 2.92,-1.33 4.3,-2.08l0.11,0.32c0.53,1.51 1.23,2.76 2.06,3.76c-1.52,0.82 -3.08,1.58 -4.68,2.26c-3.22,1.39 -6.54,2.4 -9.96,3.1c-3.41,0.7 -6.95,1.04 -10.59,1.04s-7.14,-0.35 -10.59,-1.04c-3.38,-0.66 -6.64,-1.67 -9.83,-3.03c-0.03,0 -0.09,-0.03 -0.13,-0.06c-3.16,-1.36 -6.16,-3 -8.98,-4.87c-2.81,-1.86 -5.4,-4.01 -7.78,-6.38c-2.4,-2.37 -4.52,-4.96 -6.38,-7.78c-1.9,-2.81 -3.51,-5.82 -4.87,-8.98c-1.39,-3.22 -2.4,-6.54 -3.1,-9.96c-0.67,-3.41 -1.02,-6.95 -1.02,-10.58c0,-3.63 0.35,-7.14 1.04,-10.59c0.66,-3.38 1.68,-6.64 3.03,-9.83c0,-0.03 0.03,-0.09 0.06,-0.13c1.36,-3.19 3,-6.16 4.87,-8.98c1.86,-2.81 4.01,-5.4 6.38,-7.78c2.37,-2.4 4.96,-4.52 7.78,-6.38c2.81,-1.9 5.82,-3.51 8.98,-4.87c3.22,-1.39 6.54,-2.4 9.96,-3.1c3.41,-0.68 6.95,-1.03 10.59,-1.03s7.14,0.35 10.59,1.04c3.38,0.66 6.64,1.67 9.83,3.03c0.03,0 0.09,0.03 0.13,0.06c3.16,1.36 6.16,3 8.98,4.87c2.81,1.86 5.4,4.01 7.78,6.38c2.4,2.37 4.52,4.96 6.38,7.78c1.9,2.81 3.51,5.82 4.87,8.98c1.39,3.22 2.4,6.54 3.1,9.96c0.04,0.2 0.08,0.4 0.12,0.6l-5.11,-1.8c-0.59,-2.37 -1.36,-4.67 -2.34,-6.92c-0.79,-1.86 -1.68,-3.63 -2.65,-5.34l0,0l-15.45,0c1.21,2.07 2.27,4.13 3.18,6.19l-6.2,-2.18c-0.73,-1.33 -1.52,-2.67 -2.38,-4.01l-9.03,0c-1.06,-0.33 -2.2,-0.41 -3.31,-0.24c-0.35,0.06 -0.7,0.14 -1.05,0.24l-5.14,0l0,21.74l5.07,0l1.62,4.61l-6.69,0l0,21.74l14.35,0l1.62,4.61l-15.97,0l0,16.26c6.51,-5.34 11.85,-10.74 16.01,-16.14l1.81,5.12l0,0zm39.49,6.22c-0.77,0.69 -1.96,0.7 -2.66,0l-13.98,-13.9l-6.63,13.19c-2,3.98 -5.56,5.78 -7.24,1.02l-20.11,-57.11c-0.41,-1.17 0.08,-1.64 1.24,-1.23l57.1,20.1c4.76,1.68 2.95,5.24 -1.02,7.24l-13.19,6.63l13.9,13.97c0.69,0.7 0.69,1.9 0,2.66l-7.41,7.43l0,0l0,0zm-65.81,7.55c-7.46,-6.26 -13.43,-12.58 -17.86,-18.99l-14.57,0c1.39,1.9 2.94,3.67 4.61,5.34c2.18,2.18 4.52,4.11 7.08,5.82c2.53,1.71 5.28,3.19 8.25,4.46c0.04,0.02 0.07,0.02 0.1,0.05c2.88,1.2 5.85,2.15 8.94,2.75c1.14,0.22 2.31,0.41 3.48,0.57l-0.03,0l0,0zm-35.46,-23.61l14.67,0c-4.08,-7.14 -6.29,-14.41 -6.54,-21.74l-14.48,0c0.13,2.53 0.41,4.96 0.89,7.36c0.63,3.13 1.55,6.13 2.81,9.04c0.79,1.86 1.67,3.63 2.65,5.34l0,0zm-6.35,-26.36l14.57,0c0.54,-7.21 2.94,-14.44 7.21,-21.74l-15.43,0c-0.98,1.71 -1.86,3.48 -2.65,5.34c-0.03,0.03 -0.03,0.06 -0.06,0.09c-1.2,2.88 -2.15,5.85 -2.75,8.94c-0.48,2.41 -0.8,4.84 -0.89,7.37l0,0zm9.35,-26.36l15.39,0c4.4,-6.32 10.18,-12.67 17.39,-19.06c-1.3,0.16 -2.56,0.35 -3.79,0.6c-3.13,0.63 -6.13,1.55 -9.04,2.81c-2.94,1.26 -5.69,2.75 -8.25,4.46c-2.56,1.71 -4.9,3.63 -7.08,5.82c-1.67,1.68 -3.22,3.44 -4.61,5.34l0,0.03l-0.01,0zm44.54,-19.06c7.24,6.38 13.02,12.74 17.38,19.06l15.39,0c-1.39,-1.9 -2.94,-3.67 -4.61,-5.34c-2.18,-2.18 -4.52,-4.11 -7.08,-5.82c-2.53,-1.71 -5.28,-3.19 -8.25,-4.46c-0.03,-0.03 -0.06,-0.03 -0.09,-0.06c-2.88,-1.2 -5.85,-2.15 -8.94,-2.75c-1.26,-0.25 -2.53,-0.44 -3.79,-0.6l0,-0.03l-0.01,0zm-3.58,3l0,16.06l15.3,0c-4.01,-5.31 -9.1,-10.65 -15.3,-16.06l0,0zm-4.61,89.64l0,-16.25l-16.09,0c4.14,5.44 9.52,10.88 16.09,16.25l0,0zm0,-20.86l0,-21.75l-26.61,0c0.28,7.3 2.75,14.54 7.3,21.74l19.31,0l0,0.01zm0,-26.36l0,-21.74l-18.52,0c-4.74,7.36 -7.4,14.6 -8,21.74l26.52,0l0,0zm0,-26.36l0,-16.06c-6.19,5.4 -11.28,10.75 -15.3,16.06l15.3,0l0,0z"/>
  </g>
 </g>
</svg>